<?xml version="1.0" encoding="utf-8"?>
<!-- Svg Vector Icons : http://www.onlinewebfonts.com/icon -->
<!DOCTYPE svg PUBLIC "-//W3C//DTD SVG 1.1//EN" "http://www.w3.org/Graphics/SVG/1.1/DTD/svg11.dtd">
<svg version="1.1" xmlns="http://www.w3.org/2000/svg" xmlns:xlink="http://www.w3.org/1999/xlink" x="0px" y="0px" viewBox="0 0 1000 1000" enable-background="new 0 0 1000 1000" xml:space="preserve">
<metadata> Svg Vector Icons : http://www.onlinewebfonts.com/icon </metadata>
<g><path d="M787.3,457.1l-82.1-85.9c0,0,0,0-0.1-0.1L376.9,27.8c-22.7-23.7-59.4-23.7-82.1,0l-82.1,85.9c-22.7,23.7-22.7,62.1,0,85.9L500,500L212.7,800.5c-22.7,23.7-22.7,62.2,0,85.9l82.1,85.9c22.7,23.7,59.4,23.7,82.1,0l328.2-343.3c0,0,0.1-0.1,0.1-0.1l82.1-85.9C809.9,519.2,809.9,480.8,787.3,457.1z"/></g>
</svg>